<svg viewBox="0 0 934 961" xmlns="http://www.w3.org/2000/svg" fill-rule="evenodd" clip-rule="evenodd" stroke-linejoin="round" stroke-miterlimit="1.41421"><g><path d="M373.435 896.969c6.737-10.406 13.028-20.116 19.312-29.83 2.893-4.471 5.904-8.873 8.609-13.455 1.433-2.429 3.037-3.086 5.721-2.319 4.301 1.228 10.132.83 12.646 3.569 2.699 2.941-.378 8.454-1.042 12.797-3.173 20.726-6.665 41.403-9.878 62.124-.61 3.937-1.457 5.582-6.16 4.413-10.605-2.639-10.694-2.309-8.909-12.995 2.013-12.052 4.037-24.101 5.414-36.42-8.203 12.678-16.602 25.237-24.484 38.112-2.223 3.633-4.471 3.684-7.755 2.621-3.263-1.056-6.961-.563-7.298-6.122-.775-12.783-2.465-25.512-3.803-38.26-.118-1.124-.387-2.231-1.494-3.56-.816 2.677-1.653 5.347-2.444 8.031-3.01 10.216-6.081 20.414-8.958 30.666-.81 2.887-1.771 4.034-5.14 3.22-11.526-2.786-11.649-2.66-8.22-14.123 6.296-21.039 12.774-42.025 18.985-63.088.902-3.063 1.939-3.871 5.155-3.177 13.299 2.87 13.384 2.748 14.975 16.061 1.628 13.624 3.121 27.264 4.768 41.735m-140.874-120.09c13.495.048 28.089 10.164 32.47 20.773.969 2.348.481 3.664-1.593 4.878-2.294 1.345-4.541 2.802-6.664 4.401-2.202 1.659-3.539 1.811-4.72-1.194-1.868-4.753-5.122-8.565-9.402-11.379-3.547-2.33-7.371-3.59-11.05-.438-3.612 3.095-3.424 6.985-1.412 10.909 2.354 4.592 5.027 9.031 7.181 13.712 5.087 11.057 3.544 20.879-4.197 28.538-7.518 7.439-17.959 9.029-28.689 4.074-9.242-4.268-16.019-11.147-20.617-20.253-1.393-2.76-.988-4.624 1.633-6.267 2.947-1.848 5.795-5.491 8.626-5.433 2.913.061 3.023 5.231 4.86 7.903 3.182 4.626 6.908 8.534 12.187 10.718 3.4 1.407 6.523.974 9.243-1.581 2.76-2.59 3.975-5.607 2.857-9.45-1.231-4.234-3.787-7.75-5.859-11.534-4.54-8.29-7.66-16.791-2.847-26.071 4.225-8.147 11.126-12.052 17.993-12.306" fill="#010101" fill-rule="nonzero"/><path d="M155.829 702.643c8.285.159 15.03 6.199 19.638 14.909 4.135 7.816 2.947 15.42-2.187 22.544a41.456 41.456 0 0 1-7.145 7.64c-9.339 7.78-18.838 15.375-28.019 23.338-3.042 2.638-4.157.754-5.828-1.217-1.747-2.06-2.959-3.532.091-5.919 9.179-7.185 18.073-14.733 27.054-22.169 2.959-2.45 5.711-5.103 7.675-8.474 3.573-6.132 3.186-12.048-1.157-17.126-4.433-5.181-10.1-6.596-16.693-4.255-4.341 1.543-7.794 4.422-11.269 7.28-8.364 6.876-16.885 13.574-24.99 20.743-3.471 3.07-4.514.678-6.526-1.392-2.311-2.377-1.633-3.676.652-5.517 9.337-7.523 18.506-15.253 27.795-22.836 6.286-5.132 12.377-7.524 20.909-7.549m114.443-573.262c-1.133 5.663-3.088 10.305-7.429 13.566-7.42 5.574-15.612 5.171-21.897-1.806-7.496-8.321-12.326-18.514-18.336-27.874-2.151-3.35 2.211-3.208 3.593-4.584 1.346-1.342 2.879-2.046 4.328.44 3.347 5.745 6.935 11.352 10.491 16.973 1.508 2.385 3.027 4.792 4.81 6.969 4.364 5.33 9.192 6.34 13.905 3.129 5.386-3.669 7.268-10.257 4.032-15.78a428.754 428.754 0 0 0-13.513-21.555c-2.1-3.142-1.562-4.582 1.591-6.517 3.135-1.923 4.357-1.207 6.108 1.663 6.754 11.07 13.789 21.968 20.688 32.95 1.023 1.629 3.423 3.23-.017 5.068-2.36 1.261-4.456 3.46-6.435-.376-.356-.69-1.018-1.221-1.919-2.266m472.203 13.118c3.74.254 6.737-.209 9.651.669 11.768 3.548 16.496 16.16 9.021 26.376-6.07 8.296-13.34 15.731-20.273 23.371-3.005 3.312-3.997-1.12-5.828-2.068-1.99-1.032-2.22-2.364-.446-4.272a644.146 644.146 0 0 0 16.639-18.629c5.889-6.846 6.051-12.457.766-17.053-5.437-4.729-12.353-3.889-18.059 2.338-5.064 5.525-10.015 11.152-14.995 16.752-1.785 2.008-3.078 4.344-6.199 1.085-2.404-2.509-3.676-3.734-.641-6.954 8.902-9.446 17.321-19.346 25.989-29.016 1.144-1.275 2.15-4.077 4.523-1.329 1.498 1.733 5.186 2.901 1.778 6.12-.576.545-.965 1.29-1.926 2.61" fill="#040404" fill-rule="nonzero"/><path d="M522.079 45.606c5.512-4.999 11.094-6.531 17.341-5.357 8.544 1.605 14.183 9.08 13.169 18.445-1.038 9.584-2.968 19.068-4.201 28.636-.603 4.677-3.58 2.601-5.898 2.587-3.009-.019-3.335-1.502-2.847-4.245 1.43-8.024 2.606-16.1 3.681-24.181 1.117-8.398-1.94-13.497-8.425-14.547-6.844-1.109-12.806 3.782-14.082 11.621-1.281 7.882-2.652 15.754-3.677 23.671-.445 3.431-2.135 3.349-4.792 2.945-2.762-.419-4.748-.755-4.134-4.447 2.15-12.964 4.074-25.967 6.096-38.953.353-2.262.18-4.616 4.002-3.974 3.18.534 4.525 1.533 3.788 4.759-.144.628-.021 1.316-.021 3.04" fill="#030303" fill-rule="nonzero"/><path d="M90.63 574.581c4.975 2.162 8.72 4.999 11.023 9.504 4.375 8.559 2.086 17.299-6.417 21.766-9.924 5.212-21 7.352-31.577 10.811-3.681 1.203-2.837-2.692-3.793-4.443-1.018-1.867-1.031-3.372 1.529-4.135a883.232 883.232 0 0 0 20.479-6.382c2.522-.818 5.065-1.719 7.388-2.97 5.855-3.153 7.624-7.416 5.56-12.675-2.236-5.699-8.396-9.058-14.077-7.385-8.456 2.489-16.913 5.011-25.239 7.896-3.336 1.157-4.032-.265-4.722-2.889-.636-2.422-2.016-4.501 1.919-5.693 12.897-3.903 25.712-8.081 38.51-12.301 2.16-.711 3.759-1.425 4.415 1.596.503 2.321 2.278 4.887-1.74 5.873-.935.229-1.792.772-3.258 1.427m799.953-65.072c3.671 3.987 5.792 7.689 6.24 12.108 1.154 11.371-7.078 19.764-19.096 18.858-9.458-.714-18.846-2.315-28.288-3.311-4.461-.47-2.368-3.427-2.422-5.554-.07-2.665.913-3.764 3.951-3.303 8.232 1.248 16.511 2.212 24.791 3.111 8.104.881 13.343-2.679 14.012-9.261.662-6.494-4.239-12.241-11.504-13.26-7.917-1.112-15.843-2.191-23.792-3.022-3.359-.351-4.098-1.808-3.66-4.92.403-2.854.857-4.548 4.514-4.047 13.529 1.852 27.097 3.438 40.666 4.982 2.017.23 2.797 1.017 2.263 2.785-.543 1.8 1.03 4.763-2.45 5.079-1.29.118-2.612-.107-5.225-.245M365.318 54.933c-7.409 1.891-14.174 3.384-20.774 5.411-2.852.875-3.797.24-4.53-2.42-.72-2.613-.303-3.838 2.566-4.549 8.879-2.202 17.671-4.753 26.528-7.047 1.655-.429 3.701-2.003 5.104-.289 1.498 1.832 1.522 4.197.504 6.588-4.886 11.482-9.66 23.013-14.475 34.526-.376.899-.767 1.792-1.637 3.822 8.14-2.162 15.413-4.03 22.643-6.051 2.378-.664 3.962-.89 4.741 2.226.716 2.857.302 4.046-2.763 4.796-9.697 2.371-19.298 5.126-28.966 7.621-1.508.389-3.432 1.809-4.657.259-1.319-1.667-1.54-3.87-.579-6.095 2.839-6.57 5.545-13.199 8.311-19.801 2.551-6.087 5.114-12.17 7.984-18.997M84.516 283.03c-3.308 7.158-6.309 13.263-8.943 19.523-1.187 2.824-2.317 3.286-5.143 1.968-2.777-1.295-2.738-2.539-1.584-4.951 3.873-8.095 7.485-16.315 11.334-24.423.792-1.669.857-4.549 3.302-4.419 2.513.133 4.278 1.971 5.538 4.437 5.518 10.802 11.24 21.5 16.891 32.235.526 1.002 1.067 1.996 2.076 3.88 3.442-7.395 6.652-14.036 9.614-20.786 1.154-2.629 1.986-4.125 5.373-2.55 3.393 1.577 2.2 3.27 1.194 5.447-4.116 8.899-8.102 17.86-12.316 26.712-.694 1.459-.745 4.109-3.156 3.872-2.172-.214-3.771-1.682-4.863-3.811-5.533-10.795-11.196-21.523-16.812-32.276-.678-1.299-1.344-2.606-2.505-4.858m765.597-.38c-3.062-6.115-6.009-11.983-8.938-17.86-1.101-2.21-2.601-4.08 1.028-5.978 3.657-1.912 4.241.341 5.374 2.6 4.024 8.021 8.123 16.004 12.083 24.056.673 1.37 2.509 2.9 1.149 4.442-1.569 1.782-3.816 2.374-6.377 1.86a2398.304 2398.304 0 0 0-33.297-6.429c-2.232-.416-4.414-1.503-7.175-.843 3.395 6.802 6.64 13.489 10.073 20.079 1.186 2.278 2.227 3.872-1.094 5.441-2.856 1.35-3.91.738-5.203-1.951-4.321-8.988-8.963-17.82-13.398-26.753-.69-1.388-2.501-2.878-1.232-4.458 1.394-1.734 3.553-2.201 5.906-1.737a3370.222 3370.222 0 0 0 33.789 6.489c2.23.416 4.37 1.546 7.312 1.042M78.6 419.414c1.102-7.469 2.375-14.789 3.179-22.16.342-3.143 1.519-3.792 4.42-3.502 3.439.343 2.881 2.448 2.574 4.618-1.396 9.877-2.742 19.762-4.261 29.619-.223 1.447.487 3.763-1.797 4.147-2.186.366-4.153-.41-5.814-2.144-8.511-8.884-17.11-17.683-25.663-26.525-.904-.935-1.716-1.959-3.431-3.931-1.067 7.774-1.985 14.287-2.844 20.808-.335 2.539-.269 4.815-4.255 4.265-3.992-.55-3.276-2.742-2.919-5.252 1.243-8.723 2.394-17.461 3.714-26.172.254-1.675-.425-4.3 1.703-4.743 2.164-.449 4.463.321 6.269 2.209a1226.875 1226.875 0 0 0 19.549 19.965c2.929 2.925 6.093 5.613 9.576 8.798m766.688-64.306c12.813.569 24.243 1.071 35.673 1.586 3.9.176 6.752 3.439 6.619 7.289-.07 2.018-1.369 1.499-2.427 1.413-14.944-1.202-29.881-2.499-44.831-3.603-3.352-.248-3.731-2.523-4.619-4.913-.898-2.421-.512-3.899 1.606-5.492 11.708-8.811 23.333-17.734 34.925-26.698 2.008-1.552 2.916-2.054 4.037 1.009 1.539 4.205 1.13 6.735-2.98 9.424-9.168 6-17.882 12.693-28.003 19.985M645.076 73.184c8.561 3.365 8.533 3.361 7.402 11.265-1.48 10.344-2.912 20.695-4.54 32.289 4.147-3.874 7.508-6.991 10.841-10.137 4.359-4.117 8.721-8.233 13.037-12.396 5.701-5.499 5.683-5.518 13.094-.418-5.419 4.782-10.742 9.485-16.07 14.181-6.498 5.727-13.061 11.384-19.467 17.213-1.984 1.804-3.671 1.736-5.769.433-1.932-1.2-4.292-1.717-3.907-4.956 1.863-15.7 3.575-31.417 5.379-47.474M122.165 211.216c.023-6.327 5.986-14.952 11.743-17.502 2.696-1.194 3.113.862 4.115 2.22 1.122 1.519 1.518 2.721-.755 3.862-3.007 1.508-5.491 3.81-6.93 6.944-1.193 2.599-1.238 5.217.997 7.367 2.023 1.945 4.416 2.215 6.912.994 3.58-1.752 7.04-3.775 10.701-5.328 5.4-2.291 10.453-1.465 14.746 2.665 4.144 3.987 5.071 8.848 3.349 14.215-2.078 6.478-6.492 11.06-12.069 14.748-3.048 2.016-4.046-.294-5.47-2.11-1.997-2.547.351-2.997 1.801-3.89 3.149-1.94 6.063-4.147 7.822-7.507 1.484-2.835 1.934-5.769-.414-8.363-2.404-2.655-5.331-3.168-8.591-1.519-3.557 1.797-7.001 3.926-10.729 5.248-8.988 3.189-17.262-2.739-17.228-12.044m60.492-5.805c-4.118-.027-7.31-2.188-10.161-4.766-5.794-5.238-11.511-10.568-17.079-16.044-2.227-2.19-3.92-2.821-5.916.068-1.502 2.176-2.985 1.985-4.818.097-1.625-1.674-2.597-2.942-.222-4.68 2.756-2.017 2.347-4.182-.227-5.845-4.773-3.084-1.591-6.202-.224-9.297.645-1.462 1.73-1.301 2.788-.341.369.336.708.704 1.078 1.039 5.498 4.976 5.487 4.964 10.691-.536 1.581-1.672 2.6-4.186 5.694-1.133 2.978 2.939.883 4.143-.822 5.916-5.248 5.457-5.251 5.475.344 10.744 4.476 4.216 8.907 8.485 13.494 12.578 4.901 4.372 7.436 4.2 11.783-.462.953-1.022 1.65-2.964 3.395-1.064 1.221 1.327 3.633 1.937 2.542 4.736-1.644 4.221-7.856 8.919-12.34 8.99m42.48-38.614c-3.772-.425-7.054-2.259-9.573-5.333-5.162-6.297-10.295-12.621-15.315-19.032-1.837-2.344-3.374-4.123-6.082-1.01-1.328 1.525-2.787 2.141-4.371-.14-1.345-1.936-2.753-3.59.095-5.211 3.365-1.914 2.545-3.74.389-6.124-2.346-2.593-1.132-8.017 1.788-9.647.747-.417 1.254-.219 1.747.228.489.443.877.997 1.322 1.491 5.063 5.615 5.194 5.773 11.27.76 2.705-2.231 4.024-1.593 5.833.9 1.969 2.714-.363 3.528-1.722 4.695-6.029 5.176-6.09 5.175-1.347 11.311a662.393 662.393 0 0 0 10.851 13.664c4.545 5.57 6.819 5.825 12.335 1.475 1.02-.804 1.844-2.248 3.139-.503 1.087 1.466 3.837 2.555 2.184 4.877-2.979 4.186-6.886 7.204-12.543 7.599" fill="#040404" fill-rule="nonzero"/><path d="M858.397 458.575c.395 1.762.794 3.501-2.133 3.726-2.31.177-4.026.388-4.882-2.609-2.756-9.652 1.601-16.799 11.652-17.774 8.108-.787 16.277-1.024 24.426-1.253 3.244-.091 5.13-.812 4.425-4.521-.451-2.373.707-3.252 3.044-3.291 2.121-.036 3.74.289 3.531 2.847-.298 3.623 1.448 4.508 4.771 4.258 3.633-.273 6.824 3.156 6.7 6.613-.038 1.052-.486 1.485-1.432 1.581-.829.084-1.657.164-2.486.226-7.077.525-7.106.526-6.573 7.691.187 2.523.955 5.001-3.146 5.162-4.201.165-3.368-2.617-3.472-4.975-.321-7.194-.312-7.22-7.472-6.94-6.486.253-12.981.416-19.451.905-5.879.444-7.891 2.844-7.502 8.354" fill="#030303" fill-rule="nonzero"/><path d="M552.625 112.627c-5.928.009-7.263-1.301-6.078-5.489.43-1.52 1.06-2.012 2.705-2.144 8.785-.706 10.884-2.287 13.39-11.115 3.718-13.106 7.148-26.295 10.588-39.479.892-3.415 1.293-6 6.335-4.605 5.086 1.409 3.051 4.05 2.359 6.688-3.335 12.696-6.675 25.391-10.14 38.052-2.497 9.124-6.56 16.861-17.424 17.911-.661.064-1.322.138-1.735.181" fill="#040404" fill-rule="nonzero"/><path d="M740.768 218.648c-4.074-.188-7.855-1.883-11.238-4.401-1.6-1.192-3.854-2.342-1.631-5.135 1.851-2.326 3.148-3.05 5.976-1.033 5.093 3.631 8.695 3.27 14.372-1.623 10.462-9.016 20.634-18.37 30.925-27.587.743-.666 1.582-1.268 2.178-2.052 2.952-3.889 4.602-.987 6.871.975 3.225 2.787.832 4.118-.994 5.777-9.733 8.842-19.442 17.709-29.206 26.518-4.875 4.399-10.063 8.265-17.253 8.561" fill="#050505" fill-rule="nonzero"/><path d="M829.268 535.856c1.304-.017 2.766.214 2.868 3.205.251 7.372 2.15 9.954 9.655 11.91 14.16 3.689 28.456 6.842 42.667 10.336 2.104.518 5.066.157 4.081 4.457-.943 4.118-2.057 5.387-6.49 4.225-12.388-3.248-24.925-5.935-37.393-8.882-4.216-.997-8.372-2.189-12.065-4.595-5.906-3.846-9.077-11.409-7.637-18.267.483-2.305.721-2.471 4.314-2.389" fill="#040404" fill-rule="nonzero"/><path d="M80.137 641.03c-5.839-.306-10.125-2.374-12.945-7.062-1.353-2.247-.905-3.971 1.551-4.586 1.91-.479 3.958-3.744 6.022.463 3.157 6.429 8.186 8.409 15.471 5.78 7.635-2.756 15.035-6.206 22.406-9.637 2.7-1.257 4.212-1.26 5.198 1.82.776 2.428 2.744 4.517-1.361 6.282-12.658 5.443-25.185 11.201-37.668 17.04-2.391 1.118-3.068.012-3.543-1.694-.496-1.782-3.043-3.792.299-5.431 1.448-.711 3.192-.95 4.57-2.975" fill="#050505" fill-rule="nonzero"/><path d="M458.51 44.227c3.215-5.967 6.804-9.44 12.418-10.116 2.226-.268 3.781.496 3.303 2.952-.365 1.867 1.903 4.682-2.266 5.385-8.309 1.402-11.763 5.412-11.973 13.85-.187 7.491-.072 15.002.291 22.486.186 3.845-1.601 4.131-4.722 4.34-3.681.247-4.004-1.423-4.041-4.37-.167-13.161-.372-26.326-.912-39.475-.127-3.095.965-3.665 3.525-3.845 2.569-.181 4.277.186 4.014 3.337-.108 1.298.157 2.626.363 5.456" fill="#040404" fill-rule="nonzero"/><path d="M320.703 110.656c-.489 2.661-3.393 2.327-5.194 3.416-1.528.923-2.707.705-3.508-1.194a6263.575 6263.575 0 0 0-16.589-38.969c-1.635-3.807 1.903-3.466 3.562-4.48 1.661-1.014 3.403-2.087 4.665.943 5.361 12.88 10.904 25.685 16.377 38.519.196.458.363.929.687 1.765M177.27 147.187c1.629.004 2.126.96 2.789 1.677 9.384 10.154 18.674 20.399 28.208 30.41 2.875 3.019.003 3.908-1.374 5.373-1.417 1.507-2.729 3.539-5.156.87-9.411-10.354-18.96-20.583-28.415-30.898-.68-.744-2.122-1.569-.832-2.887 1.613-1.648 3.339-3.184 4.78-4.545M865.996 302.7c2.332.98 2.179 3.656 3.219 5.553 1.259 2.292-.513 2.946-2.039 3.562-5.868 2.366-11.773 4.644-17.652 6.984-6.961 2.771-13.962 5.454-20.843 8.412-3.441 1.479-3.559-1.263-4.324-3.024-.796-1.834-2.349-3.939.964-5.253 13.001-5.155 25.966-10.401 38.945-15.609.461-.186.936-.339 1.73-.625" fill="#050505" fill-rule="nonzero"/><path d="M485.651 60.556c.35-6.806.893-13.609.971-20.418.041-3.638 1.476-4.361 4.813-4.235 3.259.122 4.393 1.138 4.18 4.426-.849 13.102-1.631 26.211-2.175 39.329-.158 3.816-1.828 4.006-5.025 3.905-3.557-.112-4.065-1.528-3.812-4.588.507-6.126.687-12.279 1.001-18.421l.047.002" fill="#040404" fill-rule="nonzero"/><path d="M875.154 482.028c-6.636 0-13.276-.154-19.906.06-3.689.119-3.428-2.115-3.418-4.519.009-2.396-.259-4.642 3.428-4.514 13.428.466 26.864.814 40.299 1.02 3.631.056 3.746 2.014 3.857 4.81.134 3.355-1.171 4.286-4.352 4.194-6.632-.193-13.272-.059-19.909-.059l.001-.992" fill="#050505" fill-rule="nonzero"/><path d="M103.054 199.728c1.629-4.579 4.231-5.679 8.338-5.024 6.048.965 6.088.708 3.948-4.831-1.9-4.916-1.9-4.916 2.212-9.242 2.596 4.507 3.821 9.41 5.231 14.181.784 2.651-2.62 6.18-5.585 6.04-4.583-.217-9.153-.712-14.144-1.124" fill="#090909" fill-rule="nonzero"/><path d="M866.018 253.956c6.183 5.809.133 9.702-1.747 14.9 2.718.297 5.221.648 7.735.815 1.599.106 2.963.421 3.604 2.058.405 1.037 1.719 1.874 1.123 3.112-.674 1.404-2.07.633-3.117.544a170.729 170.729 0 0 1-9.384-1.059c-5.094-.721-7.022-4.597-4.546-9.117 2.044-3.732 4.171-7.419 6.332-11.253" fill="#070707" fill-rule="nonzero"/><path d="M912.47 484.431c-3.117-.255-5.095-1.965-5.248-5.308-.158-3.442 1.82-5.302 5.103-5.461 3.616-.174 5.644 1.897 5.689 5.431.044 3.4-2.102 5.031-5.544 5.338" fill="#0c0c0c" fill-rule="nonzero"/><path d="M293.126 62.936c-3.088-.21-5.099-1.895-5.216-5.271-.118-3.39 1.82-5.343 5.094-5.609 3.77-.307 5.693 2.245 5.806 5.463.112 3.185-2.148 5.08-5.684 5.417" fill="#0d0d0d" fill-rule="nonzero"/><path d="M802.962 168.269c-.427 3.224-2.169 5.418-5.4 5.487-3.454.073-5.678-1.972-5.626-5.559.047-3.345 2.155-5.191 5.435-5.192 3.343-.001 4.979 2.168 5.591 5.264" fill="#0b0b0b" fill-rule="nonzero"/><path d="M880.687 295.997c3.313.157 5.288 1.946 5.436 5.214.164 3.647-2.186 5.621-5.534 5.657-3.284.034-5.139-2.257-5.167-5.496-.025-3.313 1.862-5.157 5.264-5.375" fill="#0a0a0a" fill-rule="nonzero"/><path d="M901.001 575.161c-3.359-.356-5.38-1.975-5.302-5.42.081-3.573 2.051-5.671 5.633-5.476 3.309.179 5.08 2.409 5.002 5.662-.079 3.337-2.087 5.05-5.333 5.234" fill="#090909" fill-rule="nonzero"/><path d="M165.926 134.394c3.136.465 5.264 2.133 5.171 5.474-.09 3.226-2.025 5.332-5.319 5.34-3.521.01-5.603-2.116-5.476-5.635.12-3.314 2.39-4.862 5.624-5.179" fill="#0a0a0a" fill-rule="nonzero"/><path d="M582.495 42.474c-2.908-.253-5.285-1.524-5.476-4.966-.182-3.298 1.519-5.38 4.895-5.611 3.508-.239 5.847 1.371 5.937 5.052.081 3.299-1.805 5.169-5.356 5.525" fill="#090909" fill-rule="nonzero"/><path d="M497.417 23.135c-.362 3.148-2.113 4.985-5.489 4.971-3.475-.014-5.255-2.137-5.236-5.314.022-3.466 2.149-5.614 5.704-5.426 3.295.175 4.937 2.321 5.021 5.769" fill="#0a0a0a" fill-rule="nonzero"/><path d="M255.988 715.008c-10.278-10.629-19.98-21.758-29.189-33.326-26.329-33.075-47.24-69.226-61.908-108.92-4.158-11.254-7.505-22.771-10.563-34.363-.582-2.207-.508-4.62-.522-6.94-.13-21.339 2.213-42.571 2.842-63.871.87-29.457 4.37-59.226-1.022-88.292-4.221-22.752 3.465-41.647 12.417-60.744 17.711-37.784 38.641-73.71 64.224-106.794 3.874-5.009 8.081-9.726 12.995-13.775 5.586-4.602 11.436-5.922 17.861-1.725 3.615 2.361 7.103 6.2 10.933 6.592 3.988.409 6.368-5.143 10.208-7.148 4.244-2.215 8.162-2.946 12.752-.562 10.355 5.378 19.387 11.886 22.615 23.85 1.582 5.864.869 11.913.494 17.877-.116 1.841-.486 3.552.991 5.567 3.487-4.135 6.879-7.956 10.047-11.955 6.594-8.326 14.084-15.271 24.184-19.429 16.035-6.601 31.969-13.393 49.238-16.09 3.454-.54 7.908-2.478 10.218 1.204 1.997 3.183-1.599 6.074-3.192 8.824-4.245 7.331-9.574 14.058-12.08 22.335-4.076 13.459-.449 17.852 13.394 16.117 3.959-.497 7.906-1.097 11.859-1.646 1.801-.251 3.878-.923 4.959 1.102 1.044 1.957-.617 3.49-1.667 4.878-2.912 3.847-5.967 7.587-9.014 11.33-1.877 2.305-2.144 4.383-.586 7.227 8.166 14.906 9.271 30.291 2.247 45.974-1.015 2.268-.916 4.054.752 5.928 2.653 2.98 5.217 6.043 7.726 9.146 2.451 3.03 2.797 6.645 1.064 9.88-7.309 13.643-17.688 24.049-32.495 29.49-3.896 1.431-8.082 1.088-13.611 1.442 6.564 4.881 11.571 9.379 17.667 12.427 23.088 11.546 41.721 27.796 53.783 50.982.203.39.666.646 1.272 1.212 5.266-8.009 10.216-16.083 16.613-23.095 12.838-14.069 27.265-25.954 45.481-32.409 7.26-2.573 11.239-7.231 11.682-15.001.373-6.526.518-12.986-1.738-19.26-1.014-2.819-2.146-4.047-5.448-2.148-9.163 5.271-17.525 11.514-24.789 19.162-6.122 6.444-13.822 9.566-22.245 11.491-3.07.702-6.167.233-7.842-1.964-2.582-3.387-5.788-4.07-9.292-3.352-7.52 1.539-12.224-3.958-18.006-6.697-12.832-6.079-12.87-8.21-6.039-20.742 6.24-11.45 13.776-21.842 21.351-32.359 7.518-10.437 10.591-22.569 8.532-35.532-.719-4.521.96-8.273 2.926-11.875 5.313-9.741 8.348-20.859 15.867-29.228 12.324-13.719 24.96-27.367 41.084-36.71 8.038-4.657 13.687-12.287 21.92-16.27 6.363-3.079 10.835-8.645 16.837-11.771 5.247-2.732 7.765-8.055 12.968-11.321.291 4.353-2.573 8.017-.359 13.075 3.238-5.013 9.384-5.305 12.587-10.073 1.287-1.917 2.875-3.736 4.656-5.196 3.463-2.839 6.074-6.093 7.05-10.567.264-1.212.473-2.84 2.243-2.89 1.821-.051 2.53 1.412 3.105 2.808 1.108 2.698 1.44 5.637.708 8.353-3.054 11.322-3.835 23.289-9.344 33.906-1.225 2.362-.074 4.215.53 6.193.923 3.023 1.935 5.987.173 9.01-.618 1.062-.619 2.22.554 2.386 7.358 1.039 7.53 7.431 9.545 12.473.101.254.453.409.741.655 1.763-.389 1.96-2.125 2.618-3.324 4.787-8.728 12.727-13.558 21.604-16.78 5.356-1.943 9.884 1.635 13.234 5.159 3.994 4.2 7.157 4.69 10.976.362.107-.121.267-.199.41-.283 11.799-6.969 15.55-9.391 28.94 5.135 20.947 22.723 36.275 49.288 51.327 75.978 10.058 17.834 19.439 36.052 27.047 55.113 2.347 5.879 4.246 11.898 6.02 17.976 2.19 7.508.592 14.796-.392 22.236-3.024 22.864-2.942 45.833-1.84 68.83 1.116 23.284 1.045 46.674 3.295 69.842 2.681 27.594-7.445 51.828-17.599 75.986-25.235 60.045-64.47 109.955-113.028 152.898-18.371 16.247-37.811 31.043-58.526 44.151-1.907 1.206-4.395 4.148-6.449 2.113-2.495-2.473-3.891-6.124-5.475-9.403-.509-1.054 1.014-1.449 1.833-1.951 36.307-22.262 68.43-49.572 97.009-81.047 40.776-44.91 71.161-95.748 87.603-154.515 2.315-8.271 1.797-16.516 1.453-24.796-1.446-34.78-3.92-69.528-3.694-104.357.101-15.645.64-31.322 3.677-46.759 1.034-5.26.105-10.275-1.456-15.248-5.471-17.414-14.031-33.427-22.413-49.529-15.097-29.004-31.86-56.96-52.011-82.772-2.95-3.778-6.709-6.915-9.966-10.466-1.676-1.827-3.169-1.738-5.263-.661-12.073 6.206-16.504 15.732-14.095 31.035 2.579 16.383 10.382 30.746 17.129 45.617 5.751 12.675 16.055 22.261 21.498 35.073 8.516 20.05 11.807 40.444 6.976 61.936-1.088 4.839-1.331 9.872-1.862 14.826-.102.947-.021 2.129.466 2.89 6.873 10.742 7.004 22.815 6.427 34.816-1.107 23.017-4.955 45.675-10.572 68.003-3.188 12.676-9.779 23.767-18.485 33.32-17.009 18.662-27.247 40.775-34.893 64.472-6.031 18.697-12.859 37.137-18.211 56.052-.73 2.585-1.877 3.155-4.269 2.473-10.122-2.89-10.484.237-6.6-11.507 7.109-21.498 14.258-42.983 21.56-64.417 6.737-19.775 16.947-37.622 30.982-53.122 11.927-13.17 18.457-28.64 21.163-46.015 2.535-16.285 5.578-32.497 6.54-48.989.488-8.368.292-16.721-2.651-24.667-4.945-13.355-19.479-17.116-30.352-7.964-9.741 8.198-15.113 19.3-19.925 30.694-5.86 13.871-9.3 28.399-12.053 43.193-3.246 17.449-13.254 31.385-25.03 44.156-11.53 12.502-24.63 23.384-36.612 35.416-5.526 5.55-11.392 10.372-18.148 14.532-23.483 14.458-40.978 34.722-54.391 58.648-9.91 17.679-17.533 36.263-21.794 56.124-.817 3.811-3.943 5.647-6.053 8.347-.992 1.268-1.993.38-2.863-.568-2.824-3.079-5.019-6.282-6.105-10.582-9.158-36.246-25.739-68.42-52.945-94.589-7.827-7.529-16.298-14.308-25.958-19.309-7.199-3.728-11.859-10.093-17.504-15.427-11.735-11.088-23.742-21.874-34.892-33.603-12.812-13.477-20.439-29.386-24.479-47.254-3.648-16.132-8.314-31.911-16.17-46.561-4.021-7.499-8.773-14.358-15.405-20.026-11.538-9.86-26.455-3.498-31.012 9.159-3.138 8.712-3.373 17.672-2.772 26.65 1.436 21.454 4.773 42.665 9.763 63.569 3.043 12.748 10.117 23.427 18.758 33.141 15.049 16.92 25.692 36.334 32.743 57.816 7.219 21.992 14.665 43.909 21.885 65.901.619 1.886 2.63 4.775.535 5.918-3.41 1.858-7.48 2.862-11.502 2.525-1.299-.109-1.269-2.132-1.661-3.385-8.691-27.806-17.333-55.636-28.266-82.666-5.548-13.716-13.824-25.845-23.636-36.831-13.12-14.688-21.355-31.587-24.729-50.971-3.254-18.697-6.617-37.372-7.458-56.384-.546-12.327 1.279-24.125 6.602-35.458 2.479-5.278.426-11.285-.741-16.573-3.939-17.844-3.129-35.067 2.095-52.668 4.088-13.773 11.676-25.055 19.337-36.807 9.763-14.976 17.414-31.256 22.428-48.595 1.681-5.809 2.611-11.677 2.279-17.75-.556-10.206-5.223-17.623-14.39-22.33-2.803-1.44-4.687-1.276-6.975.991-9.06 8.979-16.271 19.411-23.282 29.922-19.607 29.396-37.526 59.781-52.086 92.043-2.257 5-4.006 10.228-6.197 15.261-4.248 9.755-2.113 19.588-.791 29.493 2.655 19.88 2.607 39.887 1.867 59.867-1.03 27.789-2.151 55.583-3.915 83.332-.988 15.535 3.883 29.584 8.887 43.674 27.865 78.475 78.478 139.838 143.59 190.216 10.541 8.156 21.462 15.794 32.921 22.611 2.65 1.576 3.423 2.679 1.703 5.682-4.736 8.27-4.634 8.466-12.685 3.364-23.98-15.194-45.995-32.911-66.7-52.291-6.149-6.219-13.134-11.572-18.897-18.193zm20.941-443.038c5.056-3.131 8.558-6.282 12.655-7.643 10.233-3.399 13.262-11.596 15.39-20.721.566-2.425 1.231-4.827 1.75-7.261 2.731-12.799-.661-20.836-11.416-26.892-2.066-1.163-4.361-3.223-6.586-.409-2.222 2.813-7.15 4.066-4.773 9.572 4.036 9.35 3.601 18.953 1.109 28.754-2.004 7.884-4.654 15.516-8.129 24.6zm363.524-33.26c-.265-8.288-.312-15.836 2.368-23.151.927-2.53-6.145-9.088-8.514-8.017-5.384 2.437-10.083 5.781-12.372 11.63-1.314 3.361.702 5.011 3.328 4.641 3.551-.502 4.5 1.606 5.131 3.919.606 2.22-.16 4.915 3.873 2.939 1.844-.903 3.163 1.144 3.536 3.147.291 1.566.114 3.328 2.65 4.892z" fill="#9e0059"/><path d="M574.935 865.162c.256 3.711-.993 7.303-3.116 10.575-1.199 1.848-.984 2.777 1.091 3.73 9.008 4.142 13.145 11.561 13.053 21.184-.092 9.725-5.159 16.654-13.616 21.1-9.742 5.122-20.359 7.086-31.17 8.3-2.339.263-3.149-.725-3.654-2.891-5.514-23.665-11.114-47.31-16.721-70.953-.409-1.728-.781-3.299 1.357-4.145 11.335-4.488 22.724-8.977 35.277-7.068 10.574 1.608 17.44 9.654 17.499 20.168zm-18.615 25.25c7.492-.004 11.338 2.649 12.563 8.223 1.182 5.382-1.375 9.633-7.498 12.46-9.11 4.205-9.963 3.806-12.067-5.585a422.543 422.543 0 0 0-1.592-6.784c-1.683-6.974-1.689-6.985 5.268-8.002 1.311-.192 2.642-.25 3.326-.312zm-6.756-31.421c4.197-.048 7.514 1.292 8.841 5.694 1.361 4.514-.481 7.74-4.173 10.187-.552.365-1.147.672-1.744.962-8.246 4.021-9.486 3.444-11.434-5.318-.072-.325-.132-.652-.207-.976-2.077-8.989-.808-10.525 8.717-10.549z"/><path d="M433.799 895.486c.287-19.382 9.987-34.482 25.468-39.656 21.567-7.208 42.702 4.044 47.959 26.156 3.817 16.056 2.738 31.793-9.144 44.53-19.355 20.747-53.324 12.724-61.925-14.293-1.731-5.436-2.429-11.037-2.358-16.737zm17.051-.372c-.172 7.414 1.576 13.973 5.18 19.474 7.69 11.736 23.654 11.68 31.244-.109 6.663-10.348 6.247-27.966-.896-37.999-7.999-11.235-23.686-10.747-30.948.961-3.36 5.417-4.437 11.423-4.58 17.673zm219.483-33.163c.018 16.897-9.488 30.184-24.767 35.874-14.017 5.223-29.9 1.082-39.753-10.746-11.413-13.703-17.171-29.205-10.802-46.724 9.464-26.029 41.372-32.558 60.616-12.736 9.551 9.839 14.2 21.911 14.706 34.332zm-61.362-8.945c.09-9.579 3.019-15.791 10.082-19.434 7.258-3.741 14.321-2.793 20.461 2.385 10.622 8.958 16.038 20.345 13.477 34.361-2.108 11.536-14.458 17.718-25.015 12.58-13.05-6.352-17.561-18.208-19.005-29.892zm143.57-25.771c-4.45 3.499-8.394 6.473-12.183 9.631-1.971 1.643-3.446.387-4.933-.508-5.444-3.272-10.197-7.464-15.078-11.489-6.851-5.649-10.728-5.51-17.744-.143-2.262 1.731-1.993 2.887-.52 4.773 5.124 6.561 10.061 13.27 15.274 19.757 1.789 2.228 2.201 3.448-.376 5.53-10.038 8.115-9.928 8.199-17.778-2.064-12.951-16.933-25.885-33.882-38.978-50.704-1.774-2.278-1.997-3.523.088-5.733 6.68-7.079 13.893-13.495 22.496-18.064 8.134-4.32 16.669-5.297 24.607.328 8.293 5.876 12.17 13.945 9.89 24.285-.423 1.918-.376 3.105 1.987 3.528 4.908.879 8.815 3.739 12.606 6.798 6.324 5.101 12.286 10.718 20.642 14.075zm-60.101-36.633h-.001.001c-4.843.454-8.846 3.657-12.721 7.108-1.266 1.128-.496 1.947.269 2.927 3.268 4.19 6.462 8.439 9.717 12.638.779 1.006 1.539 2.474 3.159 1.231 3.681-2.826 7.646-5.438 9.452-9.999 2.493-6.296-2.603-13.887-9.876-13.905zM288.827 897.737c.808-6.247 1.447-12.38 2.458-18.45.435-2.608-.205-3.973-2.596-5.064-5.146-2.345-10.072-6.658-15.282-6.974-5.586-.338-8.3 6.608-12.311 10.283-6.679 6.121-6.489 6.329-14.879 2.086-6.745-3.411-6.752-3.418-1.516-8.642 17.444-17.407 34.944-34.76 52.293-52.261 2.637-2.662 4.648-3.119 8.107-1.27 9.955 5.32 10.144 5.141 8.738 16.05-3 23.278-6.166 46.534-9.093 69.82-.484 3.849-1.452 5.07-5.111 2.827-2.684-1.645-5.618-2.893-8.479-4.237-1.889-.888-2.956-2.113-2.329-4.168zm7.742-55.229c-.641 5.327-1.265 10.656-1.934 15.98-.147 1.162-.381 2.539-2.087 1.751-2.842-1.309-5.691-2.634-8.404-4.184-2.16-1.233-.167-2.222.562-2.989 3.516-3.703 7.131-7.31 10.711-10.952l1.152.394z" fill="#010101"/><path d="M44.647 525.592c-1.931-1.562-5.321 1.758-6.179-2.558-.706-3.551-.623-5.31 3.819-5.868 12.216-1.534 24.352-3.715 36.528-5.584 2.297-.352 4.631-.592 6.953-.638 12.562-.25 19.609 5.229 22.518 17.433 1.174 4.927 1.195 9.884.461 14.888-.456 3.108-1.752 4.119-5.057 3.531-3.623-.645-2.557-2.633-2.083-4.707.112-.486.203-.979.265-1.475 1.94-15.417-6.048-25.044-22.174-20.18 2.948 2.823 5.993 5.351 7.489 9.119 3.835 9.661.057 19.846-9.41 25.167-12.21 6.864-28.48 3.712-34.712-6.94-4.475-7.646-4.034-15.208 1.582-22.188zm18.365 23.832c3.957-.072 8.13-1.066 11.935-3.352 5.424-3.256 7.697-9.137 5.881-15.05-1.687-5.491-7.045-9.27-13.077-8.744-3.961.345-7.952 1.011-11.78 2.074-5.071 1.408-8.275 4.927-8.982 10.257-.698 5.258 2.147 10.28 6.879 12.843 2.727 1.477 5.67 1.842 9.144 1.972zm762.655 130.307c-6.669 3.741-13.077 2.057-19.513.065-3.019-.933-6.195-1.412-9.143-2.515-1.645-.616-5.488.718-4.5-2.632.846-2.87 2.037-7.155 7.154-5.583 4.448 1.366 8.972 2.483 13.458 3.726 11.326 3.137 14.529-2.264 19.119-11.141 1.154-2.232-1.156-2.411-2.232-3.035-6.05-3.505-12.063-7.107-18.315-10.219-3.574-1.778-2.788-3.491-1.332-6.198 1.513-2.811 2.755-3.337 5.707-1.646 16.466 9.434 33.033 18.694 49.651 27.856 2.859 1.577 3.788 3.02 2.284 6.183-3.22 6.772-6.107 13.73-11.235 19.351-5.684 6.227-12.283 8.026-19.373 5.21-7.385-2.934-11.313-8.445-11.438-16.509-.013-.808-.157-1.613-.292-2.913zm19.167 11.94c2.408-.048 4.901-1.201 7.055-3.18 2.611-2.398 4.174-5.519 5.991-8.487 2.113-3.449 1.578-5.654-2.338-7.224-2.591-1.039-4.947-2.674-7.389-4.078-10.124-5.82-10.767-5.587-14.774 5.49-.226.623-.392 1.267-.566 1.907-2.146 7.835 3.398 15.355 12.021 15.572zm-721.103-35.184c9.96 1.27 15.48 6.494 17.568 15.041 2.077 8.502-1.493 15.261-7.74 20.796-4.978 4.41-10.739 7.269-17.437 7.864-14.724 1.306-24.924-9.797-22.185-25.186-6.958 4.126-13.511 7.77-19.791 11.837-3.183 2.059-4.385.871-6.096-1.81-1.887-2.955-1.395-4.307 1.58-6.052 17.635-10.345 35.162-20.877 52.688-31.406 1.955-1.175 3.479-2.605 5.076.528 1.251 2.456 3.194 4.617-.761 6.335-.719.313-1.313.913-2.902 2.053zm-10.237 35.343c6.735-.737 13.335-3.825 17.812-10.465 3.513-5.21 3.137-10.453-.648-15.181-3.59-4.486-9.351-6.284-14.754-3.838-4.196 1.899-8.229 4.367-11.91 7.143-4.432 3.343-5.734 9.035-3.905 13.88 1.962 5.196 6.747 8.484 13.405 8.461zm10.237-35.343" fill="#040404"/><path d="M402.578 81.42c0 2.339.607 4.462-.149 5.834-1.02 1.853-3.587 1.371-5.503 1.444-2.298.087-1.729-1.983-1.905-3.336-2.598-19.956-5.13-39.921-7.792-59.867-.464-3.476-.75-5.978 4.076-6.366 3.513-.283 4.273.984 4.611 3.919.892 7.752 1.963 15.484 3.056 23.944 3.279-3.609 6.072-6.8 10.16-8.389 8.505-3.307 18.243-.536 23.331 7.328 5.799 8.961 6.706 18.895 2.839 28.687-5.163 13.073-19.524 16.023-32.724 6.802zm-1.692-20.265c.266 1.931.519 5.266 1.214 8.505 1.315 6.12 6.317 10.281 12.286 10.543 6.303.277 11.572-3.501 13.414-9.78 1.605-5.474 1.079-10.9-.998-16.136-2.862-7.212-8.912-10.654-15.719-9.142-6.373 1.415-10.391 7.162-10.197 16.01zm444.827 340.604c.134-13.358 11.146-22.902 26.263-22.76 13.629.129 23.593 10.156 23.618 23.764.023 13.477-11.377 23.36-26.577 23.042-13.591-.285-23.44-10.447-23.304-24.046zm23.704 14.932c5.238-.234 10.315-1.547 14.517-5.191 3.762-3.265 5.619-7.262 4.48-12.384-1.15-5.169-4.189-8.581-9.217-10.086-7.646-2.288-14.824-1.104-21.233 3.638-7.806 5.774-7.126 16.678 1.213 21.613 3.101 1.835 6.52 2.317 10.24 2.41z" fill="#030303"/><path d="M792.455 689.966c9.936.935 18.106 7.136 23.085 17.447 3.866 8.008 1.783 17.4-4.635 23.958-7.518 7.682-22.94 6.723-29.633-1.695-1.511-1.9-.011-2.698.769-3.758 5.139-6.973 10.181-14.026 15.587-20.787 2.52-3.151 1.429-4.394-1.612-5.693-6.386-2.728-12.638-1.284-17.559 4.304-2.784 3.161-4.707 6.872-6.231 10.754-.606 1.547-1.269 2.431-2.837 1.531-1.414-.812-3.748-.601-3.507-3.408.897-10.42 14.228-22.674 26.573-22.653zm6.276 39.266c-.502-.074-1.502-.14-2.462-.374-5.771-1.412-6.322-2.781-2.893-7.471 3.223-4.407 6.524-8.758 9.826-13.105.864-1.139 1.558-2.646 3.442-.93 3.292 2.996 4.909 9.809 3.148 14.31-1.842 4.706-5.97 7.664-11.062 7.57h.001z" fill="#040404"/><path d="M798.112 200.563c9.437-.031 17.977 6.372 20.475 15.346 2.282 8.201-2.601 18.573-10.706 23.429-2.416 1.447-3.225.112-4.36-1.409-5.178-6.938-10.498-13.774-15.512-20.828-2.123-2.988-3.594-2.42-5.584-.072-4.463 5.271-4.959 12.166-1.06 18.034 2.22 3.34 4.81 6.373 8.072 8.772 1.301.957 3.135 1.655 1.269 3.786-1.484 1.693-2.68 3.485-5.271 1.57-17.91-13.232-20.852-32.508-.634-44.839 4.034-2.459 8.536-3.712 13.311-3.789zm1.064 7.108c5.786-.005 10.093 2.914 12.129 7.859 1.784 4.332.48 8.958-3.296 12.622-1.541 1.495-2.492 1.716-3.872-.195-3.298-4.568-6.807-8.984-10.175-13.502-3.208-4.303-2.894-5.142 2.295-6.364 1.123-.264 2.292-.333 2.919-.42z" fill="#050505"/><path d="M138.941 257.2c1.173 6.38.881 11.723-2.585 16.532-3.979 5.518-9.591 7.689-15.665 5.892-5.847-1.73-10.293-7.525-10.525-13.781-.245-6.573 2.137-12.466 5.32-17.953 1.94-3.344.587-4.311-2.271-5.217-4.604-1.46-8.315.036-11.316 4.862-1.87 3.008-2.869 6.352-3.441 9.834-.216 1.312-.37 2.943-2.348 2.247-1.527-.538-4.082-.075-3.765-2.941.891-8.079 3.707-15.31 10.511-20.178 6.035-4.318 12.372-2.994 18.357.405 8.246 4.682 16.375 9.568 24.572 14.338 1.209.703 2.521 1.346 1.233 2.93-1.329 1.635-1.296 4.801-4.543 4.351-.95-.131-1.843-.672-3.534-1.321zm-21.825 5.261c.093 4.9 4.101 9.016 8.779 9.016 4.545.001 8.527-4.977 8.427-10.536-.09-4.967-7.173-12.984-11.135-12.603-2.099.203-6.156 9.64-6.071 14.123zm576.335-112.402c-4.503 1.092-8.85.536-12.962-1.612-7.001-3.656-10.113-10.084-8.174-16.886 1.924-6.743 8.112-10.924 15.664-10.533 5.998.31 11.399 2.582 16.213 5.9 3.267 2.251 4.493 1.225 5.628-1.895 1.597-4.391.184-7.835-3.181-10.632-2.857-2.375-6.198-3.887-9.852-4.567-1.926-.358-3.592-.465-2.905-3.303.603-2.488 1.715-3.215 4.204-2.762 7.155 1.303 13.289 4.437 17.696 10.245 4.816 6.348 3.338 12.998-.434 19.124-5.05 8.205-10.582 16.112-15.846 24.187-.843 1.294-1.777 2.358-3.039.945-1.375-1.54-4.888-1.415-3.965-4.784.287-1.047 1.342-1.857.953-3.427zm-3.136-4.892c5.724.057 12.528-4.491 12.749-9.72.182-4.272-5.105-4.519-8.154-6.292-.563-.326-1.237-.474-1.872-.659-3.974-1.157-7.614-.706-10.406 2.607-2.021 2.398-3.072 5.149-1.603 8.271 1.925 4.093 5.524 5.445 9.286 5.793zM92.652 359.614c2.733 5.219 3.876 9.96 2.63 15.071-1.706 7-6.737 11.424-13.207 11.506-7.256.092-13.3-4.523-15.003-11.503-1.414-5.794-1.141-11.639.347-17.307.977-3.719-.592-4.389-3.621-4.433-4.566-.066-8.232 2.895-9.517 7.958-.825 3.257-.916 6.583-.437 9.917.212 1.48.676 3.068-1.726 3.216-2.021.124-3.989.574-4.472-2.395-1.344-8.256-.422-16.053 5.305-22.479 5.119-5.745 11.827-5.161 18.531-3.524 8.241 2.012 16.476 4.05 24.692 6.161 1.342.344 4.128-.472 3.293 2.295-.647 2.145.332 5.927-3.97 5.677-.636-.037-1.272-.072-2.845-.16zm-20.287 6.292c-.037 6.633 3.655 11.165 9.254 11.359 4.456.155 7.567-3.007 8.135-8.271.733-6.78-5.136-13.379-13.211-12.951-5.582.297-2.782 6.489-4.178 9.863zm761.889 233.835c-2.078-5.111-3.174-9.83-1.521-14.895 2.386-7.312 7.353-11.251 14.183-10.874 7.067.39 12.677 5.487 13.918 12.768.941 5.513.515 11.028-1.307 16.248-1.519 4.356.382 5.349 4.055 5.356 3.893.006 6.641-1.823 8.278-5.321 1.809-3.861 2.33-7.944 1.966-12.16-.115-1.345-.45-2.893 1.656-2.756 1.504.098 3.833-.974 4.25 1.327 1.354 7.474.125 14.575-4.194 20.935-3.668 5.403-9.018 7.138-15.245 6.179-2.936-.453-5.817-1.374-8.666-2.266-7.132-2.23-14.233-4.555-21.339-6.865-1.544-.502-4.28-.177-2.952-3.128.918-2.04.288-6.039 4.736-4.568.437.145.962.02 2.182.02zm20.634-5.857c0 .498.075 1.009-.013 1.491-.609 3.344-.403 7.13-3.228 9.509-1.449 1.219-10.25-3.546-11.925-6.048-2.606-3.895-2.525-9.673.217-13.114 2.25-2.823 5.198-3.413 8.501-2.399 4.398 1.353 6.556 4.946 6.448 10.561z" fill="#040404"/><path d="M610.291 104.767c-5.233 1.921-9.896 2.604-14.743 1.063-6.75-2.145-10.856-7.481-10.521-14.003.344-6.689 5.129-12.379 11.699-13.788 6.213-1.333 12.319-.39 18.176 1.635 3.81 1.316 4.797-.204 5.015-3.508.306-4.636-2.066-7.557-6.035-9.367-3.382-1.543-6.98-2.216-10.701-1.898-1.869.16-3.287.112-3.199-2.405.07-1.963.062-3.69 2.686-3.847 8.305-.496 16.107.988 21.946 7.302 5.152 5.571 4.197 12.254 1.891 18.822a3988.852 3988.852 0 0 1-8.494 23.98c-.54 1.509-.246 4.358-3.15 3.04-1.928-.875-5.582-.295-4.798-4.337.122-.624.114-1.273.228-2.689zm-5.682-20.929c.375.027 1.248-.066 2.018.174 3.276 1.02 7.898-.021 9.308 3.988 1.133 3.223-4.014 10.292-7.66 11.946-4.553 2.066-10.589.839-13.102-2.806-2.47-3.584-1.319-6.951 1.003-10.086 1.977-2.668 4.9-3.179 8.433-3.216z" fill="#030303"/><path d="M77.816 471.13c4.232 4.293 6.573 8.907 6.478 14.578-.117 6.927-3.543 11.943-9.46 13.723-6.429 1.932-12.961-.242-16.772-5.693-3.654-5.225-5.048-11.23-5.169-17.448-.08-4.156-1.645-4.689-5.177-3.481-4.407 1.508-6.354 4.641-6.583 9.001-.194 3.708.646 7.269 2.249 10.633.701 1.472 1.931 2.955-.721 3.908-1.977.71-3.671 1.53-4.939-1.156-3.175-6.725-4.201-13.686-2.166-20.857 1.797-6.334 6.698-9.225 12.827-10.372 6.256-1.172 12.607-.695 18.913-1.006 3.156-.154 6.324-.5 9.467-.35 2.029.097 5.113-2.634 5.932 1.809.72 3.901.036 5.017-4.879 6.711zm-18.962 4.319c.493 10.261 4.658 16.098 11.097 15.794 4.731-.224 8.062-3.881 7.771-8.532-.43-6.884-5.882-11.532-13.226-11.028-2.536.174-6.768-1.493-5.642 3.766zm682.204 269.77c.475-7.075 2.507-12.876 8.19-16.776 5.132-3.523 10.938-3.576 15.841-.153 5.387 3.76 7.556 10.385 5.559 17.316-1.605 5.567-4.886 10.195-8.776 14.333-2.091 2.225-1.747 3.405.648 4.929 4.778 3.042 9.122 2.225 13.595-2.728 2.046-2.266 3.366-4.92 4.533-7.691.462-1.096.424-3.125 2.414-2.173 1.485.711 3.72.849 3.721 3.391.004 10.598-16.141 21.806-25.905 17.894-4.092-1.641-7.215-4.675-10.351-7.669a2009.923 2009.923 0 0 0-16.329-15.387c-1.27-1.184-3.603-2.065-1.227-4.138 1.707-1.488 2.67-5.396 6.162-2.316.36.318.829.511 1.925 1.168zm22.974-2.059c-.142-2.158-.776-3.971-1.883-5.426-.992-1.304-2.364-2.321-4.103-3.042-3.636-1.506-6.423.112-8.74 2.883-5.219 6.245-2.533 16.852 4.962 19.763.732.284 1.285.297 1.769-.219 3.776-4.021 7.273-8.209 7.995-13.959z" fill="#040404"/></g></svg>